<svg width="25" height="24" viewBox="0 0 25 24" fill="none" xmlns="http://www.w3.org/2000/svg">
<path fill-rule="evenodd" clip-rule="evenodd" d="M9.5 4.75C9.4337 4.75 9.37011 4.77634 9.32322 4.82322C9.27634 4.87011 9.25 4.9337 9.25 5C9.25 5.72935 8.96027 6.42882 8.44454 6.94454C7.92882 7.46027 7.22935 7.75 6.5 7.75H5.5C5.16848 7.75 4.85054 7.8817 4.61612 8.11612C4.3817 8.35054 4.25 8.66848 4.25 9V18C4.25 18.3315 4.3817 18.6495 4.61612 18.8839C4.85054 19.1183 5.16848 19.25 5.5 19.25H19.5C19.8315 19.25 20.1495 19.1183 20.3839 18.8839C20.6183 18.6495 20.75 18.3315 20.75 18V9C20.75 8.66848 20.6183 8.35054 20.3839 8.11612C20.1495 7.8817 19.8315 7.75 19.5 7.75H18.5C17.7707 7.75 17.0712 7.46027 16.5555 6.94454C16.0397 6.42882 15.75 5.72935 15.75 5C15.75 4.9337 15.7237 4.87011 15.6768 4.82322C15.6299 4.77634 15.5663 4.75 15.5 4.75H9.5ZM8.26256 3.76256C8.59075 3.43438 9.03587 3.25 9.5 3.25H15.5C15.9641 3.25 16.4092 3.43438 16.7374 3.76256C17.0656 4.09075 17.25 4.53587 17.25 5C17.25 5.33152 17.3817 5.64946 17.6161 5.88388C17.8505 6.1183 18.1685 6.25 18.5 6.25H19.5C20.2293 6.25 20.9288 6.53973 21.4445 7.05546C21.9603 7.57118 22.25 8.27065 22.25 9V18C22.25 18.7293 21.9603 19.4288 21.4445 19.9445C20.9288 20.4603 20.2293 20.75 19.5 20.75H5.5C4.77065 20.75 4.07118 20.4603 3.55546 19.9445C3.03973 19.4288 2.75 18.7293 2.75 18V9C2.75 8.27066 3.03973 7.57118 3.55546 7.05546C4.07118 6.53973 4.77065 6.25 5.5 6.25H6.5C6.83152 6.25 7.14946 6.1183 7.38388 5.88388C7.6183 5.64946 7.75 5.33152 7.75 5C7.75 4.53587 7.93438 4.09075 8.26256 3.76256Z" fill="#262626"/>
<path fill-rule="evenodd" clip-rule="evenodd" d="M9.84835 10.3483C10.5516 9.64509 11.5054 9.25 12.5 9.25C13.4946 9.25 14.4484 9.64509 15.1517 10.3483C15.8549 11.0516 16.25 12.0054 16.25 13C16.25 13.9946 15.8549 14.9484 15.1517 15.6517C14.4484 16.3549 13.4946 16.75 12.5 16.75C11.5054 16.75 10.5516 16.3549 9.84835 15.6517C9.14509 14.9484 8.75 13.9946 8.75 13C8.75 12.0054 9.14509 11.0516 9.84835 10.3483ZM12.5 10.75C11.9033 10.75 11.331 10.9871 10.909 11.409C10.4871 11.831 10.25 12.4033 10.25 13C10.25 13.5967 10.4871 14.169 10.909 14.591C11.331 15.0129 11.9033 15.25 12.5 15.25C13.0967 15.25 13.669 15.0129 14.091 14.591C14.5129 14.169 14.75 13.5967 14.75 13C14.75 12.4033 14.5129 11.831 14.091 11.409C13.669 10.9871 13.0967 10.75 12.5 10.75Z" fill="#262626"/>
</svg>
