<svg width="201" height="201" viewBox="0 0 201 201" fill="none" xmlns="http://www.w3.org/2000/svg">
<path d="M129.152 94.7121C129.366 94.6621 129.578 94.5953 129.795 94.6682C130.102 94.7706 130.369 95.087 130.474 95.3847C130.702 96.0351 130.603 96.8675 130.298 97.4707C129.934 98.1942 129.352 98.8236 128.575 99.0884C128.368 99.0871 128.171 99.086 127.973 99.014C127.648 98.8953 127.387 98.589 127.248 98.2796C127.042 97.824 127.131 97.3155 127.302 96.8657C127.628 96.0061 128.323 95.1123 129.152 94.7121Z" fill="#0F1E3D"/>
<path d="M121.692 19.6861L122.087 19.6636C122.333 19.7687 122.562 19.8809 122.695 20.1265C122.87 20.4491 122.899 20.9142 122.979 21.272C123.071 21.6835 123.237 22.0781 123.415 22.4593C123.815 23.3137 124.496 23.9388 124.898 24.742C125.025 24.9952 124.965 25.221 124.867 25.4733C124.537 25.7933 124.479 25.8484 124.033 25.9418C123.317 25.8067 122.784 25.4173 122.275 24.9092C121.015 23.6515 120.756 22.3094 120.738 20.6018C121.028 20.1973 121.249 19.9227 121.692 19.6861Z" fill="#0F1E3D"/>
<path d="M116.779 24.0104C116.968 23.9479 117.134 23.9289 117.332 23.9339C117.455 23.9369 117.644 23.9393 117.754 23.9985C118.354 24.3226 119.022 26.1797 119.432 26.8145C119.679 27.198 120.022 27.454 120.315 27.7941C120.608 28.1349 120.655 28.4419 120.612 28.8752C120.353 29.1885 120.293 29.2038 119.926 29.3286C118.852 29.2121 117.75 28.8681 117.009 28.0374C116.374 27.3249 115.888 26.157 115.99 25.1898C116.044 24.6813 116.4 24.3112 116.779 24.0104Z" fill="#0F1E3D"/>
<path d="M27.9508 124.982C28.2995 124.88 28.4401 124.886 28.7912 124.979C29.5532 125.75 29.3391 127.116 29.7901 128.074C30.3393 129.24 31.2078 129.41 32.3989 129.211C32.9263 129.123 33.2448 128.956 33.7641 129.154C33.984 129.433 34.0932 129.584 34.0331 129.955C33.9713 130.336 33.6798 130.59 33.3931 130.815C32.7464 131.09 32.0874 131.183 31.3858 131.179C30.5244 131.174 29.6576 130.672 29.0576 130.081C28.0567 129.095 27.4619 127.476 27.4976 126.07C27.5106 125.565 27.5757 125.327 27.9508 124.982Z" fill="#0F1E3D"/>
<path d="M34.5646 89.8473L34.9544 89.8226C35.2938 90.0512 35.5144 90.2177 35.733 90.5668C35.7849 90.9275 35.8794 91.3028 35.6807 91.6334C35.2058 92.4237 33.573 92.6418 32.7382 92.9151L29.441 94.0111C29.2749 94.0029 29.0879 93.9953 28.9303 93.9395C28.7089 93.8611 28.516 93.6643 28.4114 93.4578C28.2594 93.1571 28.1314 92.652 28.2708 92.3337C28.4931 91.8263 29.2736 91.6161 29.7482 91.4297C31.3371 90.8058 32.9427 90.366 34.5646 89.8473Z" fill="#0F1E3D"/>
<path d="M125.541 92.5499H125.677C126.06 92.6144 126.158 92.7471 126.411 93.0031C126.539 93.5112 126.442 94.0844 126.413 94.604C126.282 97.0145 125.771 98.8164 124.672 100.956C124.389 101.507 124.196 101.794 123.6 101.988C123.251 101.948 122.933 101.913 122.691 101.631C122.466 101.369 122.373 100.996 122.447 100.658C122.552 100.174 122.97 99.613 123.2 99.1641C123.81 97.9697 124.35 96.3125 124.405 94.9799C124.427 94.4537 124.435 93.4853 124.722 93.0364C124.947 92.6835 125.169 92.6518 125.541 92.5499Z" fill="#0F1E3D"/>
<path d="M24.2335 128.117L24.3765 128.082C24.7339 128.021 25.1075 128.157 25.3712 128.402C25.6724 128.682 25.5823 129.251 25.6281 129.636C25.8387 131.414 26.3001 133.7 28.403 134.118C28.825 134.202 29.3961 133.984 29.7969 134.13C30.0105 134.207 30.2505 134.442 30.4293 134.584C30.4503 134.718 30.4737 134.846 30.4607 134.982C30.4198 135.413 30.11 135.638 29.7924 135.885C29.3109 136.061 28.8134 136.199 28.2977 136.129C27.0056 135.952 25.9548 135.118 25.2017 134.087C24.2753 132.818 23.4439 130.354 23.7533 128.766C23.8268 128.387 23.9166 128.322 24.2335 128.117Z" fill="#0F1E3D"/>
<path d="M101.79 45.5236C101.891 45.5016 101.984 45.4754 102.088 45.4806C102.342 45.4933 102.625 45.7119 102.763 45.9191C102.957 46.2114 102.958 46.3805 102.898 46.7128C101.281 48.4481 99.3804 49.9566 97.7175 51.6623C97.2169 52.1754 96.6643 53.2478 96.0325 53.4718C95.7936 53.4783 95.633 53.4491 95.4001 53.4057C95.2273 53.2837 95.0708 53.1903 94.9685 52.9996C94.8033 52.6915 94.8135 52.4318 94.9326 52.1095C95.1123 51.6234 95.5274 51.1363 95.8347 50.7162C97.284 48.7352 99.5062 46.5111 101.79 45.5236Z" fill="#0F1E3D"/>
<path d="M118.434 178.127C118.807 178.107 119.204 178.049 119.533 178.26C119.757 178.404 119.853 178.561 119.899 178.828C119.985 179.323 119.755 179.654 119.462 180.028C118.21 181.63 116.376 183.223 114.315 183.5L113.63 183.407C113.179 183.297 112.904 183.022 112.664 182.642C112.625 182.305 112.594 182.004 112.759 181.693C113.417 180.454 117.058 178.56 118.434 178.127Z" fill="#0F1E3D"/>
<path d="M40.0392 103.252C40.3038 103.193 40.5198 103.177 40.7745 103.279C41.024 103.379 41.3829 103.698 41.4714 103.96C41.5604 104.225 41.576 104.634 41.4407 104.889C40.9217 105.865 34.5158 110.572 33.4399 110.989L33.1156 111.06C32.7115 110.956 32.38 110.785 32.1735 110.401C32.041 110.155 32.0068 109.722 32.1353 109.466C32.6272 108.486 36.2825 106.117 37.3363 105.307C38.1905 104.651 39.08 103.716 40.0392 103.252Z" fill="#0F1E3D"/>
<path d="M42.7711 51.037C43.0465 50.9317 43.4292 50.9028 43.7133 51.0089C43.9836 51.1097 44.2511 51.4158 44.4549 51.6145L46.2264 53.4891L50.702 57.9619L52.4321 59.4698C52.7969 59.7855 53.1852 60.0408 53.3742 60.4964C53.3538 60.9575 53.3768 61.0845 53.1136 61.4788C52.8259 61.6559 52.5683 61.7359 52.2291 61.6925C51.5474 61.6051 51.0118 61.0321 50.5026 60.6099C48.1215 58.635 46.3479 56.2971 44.365 53.9559C43.8712 53.3728 43.2435 52.8299 42.8282 52.1936C42.5544 51.7739 42.6643 51.4846 42.7711 51.037Z" fill="#0F1E3D"/>
<path d="M32.4168 68.1922L33.0609 68.186C34.3054 68.2422 35.6767 68.6975 36.8751 69.0212C38.6647 69.5047 40.5038 69.979 42.242 70.6283C42.8794 70.8666 43.8061 71.0843 44.2495 71.6283C44.4707 71.8992 44.5475 72.2367 44.4796 72.5792C44.3855 73.0536 44.0984 73.3204 43.7094 73.5703C43.0212 73.6311 42.5269 73.2013 41.9161 72.9306C40.7164 72.3991 39.3953 72.0635 38.1458 71.6657C36.2844 71.0728 34.4912 70.3779 32.5537 70.0956C32.089 70.0277 31.888 69.9315 31.6015 69.5594C31.5483 69.2714 31.4806 68.989 31.6298 68.7125C31.8207 68.3583 32.0707 68.325 32.4168 68.1922Z" fill="#0F1E3D"/>
<path d="M81.6425 37.4156L82.0518 37.5237C82.2827 37.7416 82.466 37.9213 82.5285 38.2443C82.6358 38.7987 82.3783 39.496 82.2304 40.0264L81.62 42.4218C81.1095 44.6272 80.945 46.7969 80.9463 49.0515C80.9467 49.829 81.1752 52.0649 80.7218 52.6009C80.441 52.9328 80.2101 52.904 79.8163 52.9271C79.6561 52.8631 79.6862 52.8815 79.5089 52.7732C79.19 52.5784 79.0531 52.1961 78.9805 51.845L78.9515 51.6943C78.7446 50.6537 78.8315 49.5832 78.852 48.5283C78.873 47.4403 78.8161 46.3337 78.9018 45.2494C79.0525 43.3385 79.6164 41.3926 80.1872 39.5717C80.343 39.0748 80.4496 38.3284 80.7372 37.9021C81.0079 37.5008 81.1956 37.5027 81.6425 37.4156Z" fill="#0F1E3D"/>
<path d="M60.0087 39.2534L60.1622 39.2093C60.4005 39.17 60.6984 39.1762 60.895 39.3105C62.0241 40.0813 66.5678 52.4232 66.7606 54.2802C66.8272 54.923 66.71 54.9862 66.3033 55.4554C65.9725 55.7105 65.6182 55.6461 65.2223 55.629C64.6534 55.2275 64.402 54.4338 64.1451 53.7897C63.7481 52.7936 63.504 51.7499 63.1762 50.7313L60.9138 43.6564L60.0771 41.2339C59.9495 40.8714 59.6998 40.3358 59.6844 39.9561C59.671 39.6253 59.8247 39.498 60.0087 39.2534Z" fill="#0F1E3D"/>
<path d="M119.312 171.36C119.605 171.269 119.861 171.254 120.15 171.362C120.516 171.499 120.599 171.731 120.74 172.062C120.706 172.644 120.571 172.836 120.159 173.26C119.258 174.189 118.241 174.969 117.243 175.789C115.773 176.996 114.183 178.195 112.442 178.984C110.164 180.015 107.757 180.263 105.292 180.307C104.876 180.255 104.547 180.197 104.231 179.897C103.948 179.627 103.963 179.408 103.973 179.035C104.522 177.932 107.12 177.804 108.241 177.523C112.39 176.486 116.124 174.153 119.312 171.36Z" fill="#0F1E3D"/>
<path d="M148.944 17.6066C149.318 17.5638 149.765 17.5724 150.139 17.6181C151.511 17.7848 152.775 18.5694 153.583 19.676C154.524 20.9646 154.58 22.5687 154.532 24.0954C154.47 26.0445 154.174 27.8962 153.897 29.8192L154.356 29.7597C155.762 29.5658 157.619 29.5344 159 29.8769L159.112 29.9054C159.446 29.9874 159.781 30.0784 160.094 30.2252C160.857 30.5837 161.318 31.3809 161.605 32.1363L161.656 32.2751C164.072 32.8133 167.037 33.7065 168.485 35.8751C168.751 36.2736 168.935 36.6969 169.114 37.1389C169.142 37.21 169.268 37.5801 169.301 37.6111C169.46 37.762 170.285 37.9432 170.558 38.0489C172.006 38.6082 173.531 39.4962 174.537 40.7012C175.761 42.1686 175.912 43.9852 175.087 45.6819C174.891 46.0855 174.449 46.6498 174.349 47.0591C174.286 47.319 174.369 47.8176 174.373 48.0972L174.357 50.2338C174.259 53.4227 173.305 56.7595 171.895 59.6068C170.923 61.5716 169.699 63.3047 168.222 64.9205C167.708 65.4837 167.107 65.9605 166.566 66.4991C166.493 66.5719 166.221 66.791 166.187 66.8781C166.05 67.2245 166.054 68.0281 166.008 68.4201C166.924 68.6967 167.826 69.1507 168.683 69.5728C170.159 70.2997 171.942 71.2034 173.042 72.4629C173.664 73.1744 174.024 73.8934 173.917 74.8527C173.791 75.988 172.557 77.0049 171.766 77.7013C171.502 77.9342 170.919 78.3458 170.784 78.6676C170.446 79.4721 171.137 82.5793 171.202 83.629C171.274 84.7935 171.164 85.9555 171.093 87.118L171.473 87.1556C172.489 87.2791 173.516 87.5243 174.522 87.7172C175.153 87.8378 176.25 87.907 176.653 88.4791C176.845 88.7504 176.996 89.1578 176.917 89.4875C176.627 90.6955 176.007 91.9828 175.507 93.1153L172.939 98.5853C169.438 105.642 165.241 112.857 158.734 117.565C157.58 118.4 156.324 119.096 155.112 119.84L150.352 122.895C142.91 127.637 133.954 130.451 125.177 131.132C122.632 131.329 119.926 131.394 117.422 130.833L119.312 137.36L123.32 151.306C123.677 152.405 124.422 153.32 124.753 154.4C124.888 154.84 124.861 155.35 124.856 155.805C124.837 157.594 124.211 159.382 123.337 160.933C122.512 162.396 121.299 163.678 119.978 164.71C119.277 165.259 118.484 165.71 117.732 166.189C115.618 167.537 113.425 168.717 111.188 169.846C103.169 173.896 94.6168 177.551 85.9534 179.962C82.2923 180.98 77.2804 182.329 73.743 180.28C70.442 178.368 70.2851 173.634 69.4312 170.359L64.9712 174.181C62.4545 176.251 60.5315 178.025 57.063 177.981C53.5294 177.935 49.3107 175.563 46.8932 173.083C43.1668 169.261 40.0842 163.7 40.186 158.242C40.2157 156.654 40.6033 155.129 41.0539 153.613C42.1609 149.892 44.1274 146.443 46.7356 143.571C47.6597 142.554 48.7211 141.619 49.7098 140.663C50.4506 139.889 51.278 139.33 52.0819 138.641C53.4358 137.481 54.7355 136.489 56.2295 135.508C57.1391 134.911 57.9895 134.335 59.0197 133.963C58.6463 131.896 57.9272 129.829 57.356 127.807L54.8604 118.956L49.0651 99.2526C47.7403 94.9294 46.1659 90.4693 45.362 86.014C44.8831 83.36 45.2511 81.2571 46.8156 79.0366C49.5198 75.1986 53.4946 72.1349 57.5073 69.7702C63.9066 65.999 70.6667 63.5385 78.0052 62.2827C81.9052 61.6153 85.8204 61.065 89.783 61.012C91.117 60.9943 92.4832 60.9532 93.8062 61.1517C94.846 61.3078 96.3143 61.6615 97.0931 62.4228C97.5018 62.8222 97.8429 63.3456 98.1839 63.8046C98.284 63.7715 98.287 63.7646 98.4105 63.7581C98.8857 63.7335 99.3906 64.0252 99.6784 64.3906C99.9506 64.7363 100.082 65.2115 100.241 65.6193L101.298 68.7687L103.326 74.198C103.353 74.262 103.584 74.8512 103.612 74.8657C103.811 74.9656 104.908 74.9167 105.226 74.9534C107.313 75.1963 109.635 76.2181 111.232 77.5843C112.212 78.4239 112.973 79.4438 113.737 80.4755C114.369 81.3311 115.084 82.218 115.597 83.1494C116.597 84.9667 117.02 87.0884 117.169 89.1405C117.492 93.591 115.853 98.2662 112.86 101.584C112.246 102.263 111.338 102.619 110.768 103.275L111.652 108.928C111.936 110.456 114.217 121.318 114.638 121.769C116.62 121.505 118.5 121.245 120.419 120.667C128.06 118.368 135.341 112.376 139.102 105.359C142.893 98.2852 143.914 89.6814 143.054 81.7745C143.005 81.3242 142.965 79.2453 142.868 79.0531C142.83 78.9798 142.315 78.7101 142.223 78.6535C140.907 77.8379 138.841 76.8531 138.16 75.361C137.589 74.1083 139.026 72.6134 138.522 71.7297C137.504 69.9446 135.011 68.557 134.504 66.549C134.407 66.1637 134.4 65.6891 134.631 65.3501C135.172 64.5536 136.281 64.234 137.188 64.0697L137.383 64.0358C138.381 63.849 139.406 63.8496 140.42 63.8105C139.507 63.234 138.6 62.6364 137.84 61.8622C135.85 59.8376 135.012 57.0834 134.466 54.3706C134.112 52.6167 133.791 51.0814 132.747 49.5774C130.97 47.0176 127.178 45.8001 126.279 42.7152C125.922 41.488 126.166 39.797 126.811 38.7129C127.458 37.6253 128.85 36.8967 130.064 36.6305L130.248 36.592C131.242 36.3767 132.46 36.2935 133.467 36.4651C134.698 36.6751 135.954 36.8809 137.102 37.3974C138.238 37.9081 139.167 38.6673 140.171 39.3803C140.457 37.821 140.409 36.2314 140.514 34.655C140.81 30.2077 141.386 24.7888 143.984 21.0342C145.258 19.1936 146.7 18.0176 148.944 17.6066Z" fill="#0F1E3D"/>
<path d="M142.408 65.2998C142.63 65.2892 142.773 65.2928 142.982 65.37C143.065 65.8455 142.924 66.4386 142.868 66.9194L140.818 66.268L139.004 65.5318L142.408 65.2998Z" fill="#F6F6F5"/>
<path d="M168.711 39.5611C169.932 39.8569 171.166 40.4577 172.124 41.272C172.751 41.8052 173.455 42.5245 173.506 43.3948L173.511 43.5236C173.521 43.7816 173.517 44.0185 173.43 44.2657C173.18 44.9699 172.673 45.6304 172.299 46.2803C171.459 47.7374 170.67 49.2513 169.67 50.6094C169.07 51.4234 168.313 52.0807 167.285 52.229C165.508 52.1138 163.539 50.9553 162.312 49.7013C165.072 46.8246 167.529 43.3935 168.711 39.5611Z" fill="#F6F6F5"/>
<path d="M161.554 34.3655C162.916 34.6351 164.195 35.1819 165.39 35.877C165.792 36.1105 166.262 36.3769 166.566 36.7315C166.964 37.1959 167.041 37.8007 166.994 38.3886C166.945 39.0058 166.604 39.6964 166.364 40.2642C165.702 41.8328 164.81 43.2923 163.878 44.7128C162.847 46.2834 161.868 47.6682 160.438 48.9138L160.292 48.9964C159.34 49.527 158.295 49.7966 157.219 49.4543C156.484 49.2202 156.187 49.005 155.843 48.3155C155.513 47.6546 155.533 47.0866 155.545 46.3638C155.546 46.2909 155.525 45.9232 155.556 45.8648C155.674 45.6358 156.1 45.3002 156.285 45.0912C156.701 44.6202 157.08 44.1163 157.419 43.5872C159.265 40.6975 160.505 37.6186 161.554 34.3655Z" fill="#F6F6F5"/>
<path d="M155.49 31.7941C156.435 31.6989 157.355 31.7266 158.299 31.8153C158.912 31.8728 159.225 31.9223 159.627 32.4055C159.76 32.8769 159.747 33.2622 159.639 33.74C159.359 34.9722 158.809 36.2249 158.335 37.3923C157.532 39.3674 156.731 41.2765 155.508 43.0361C155.155 43.5431 154.68 44.2666 154.147 44.5881L154.023 44.6588C153.311 45.0802 152.781 45.0823 151.967 45.0724C150.859 44.9995 149.706 44.7247 148.807 44.0447C148.213 43.5961 147.873 42.8536 147.804 42.1183C147.703 41.0383 148.739 39.4415 149.276 38.5507C150.449 36.6035 151.606 34.7692 153.011 32.9833C153.193 32.7519 153.226 32.5132 153.168 32.2265L153.115 32.0239C153.888 32.0393 154.719 31.881 155.49 31.7941Z" fill="#F6F6F5"/>
<path d="M122.609 155.792L122.762 155.851C122.664 157.316 122.153 158.658 121.43 159.927C120.81 161.015 120.043 161.912 119.077 162.711C115.746 165.466 111.4 167.443 107.497 169.282L103.168 171.342L93.4068 175.227C90.6628 176.245 87.8263 177.268 84.9982 178.018C82.4342 178.698 79.6688 179.284 77.0038 179.057C76.1594 178.985 75.1223 178.791 74.4122 178.315C72.8713 177.284 71.2235 171.764 71.0211 169.954C70.9807 169.594 70.9491 169.193 71.169 168.901C72.2399 168.912 73.2006 169.186 74.2501 169.323L77.0163 169.574L77.1545 171.33C77.5415 173.466 78.0628 175.955 79.1196 177.856C79.4087 178.376 79.5585 178.603 80.1419 178.766C80.4716 178.687 80.6093 178.579 80.7905 178.277C80.8327 178.207 80.9211 177.973 80.9176 177.9C80.8978 177.481 80.5745 176.795 80.4504 176.372L79.4976 173.058C79.1648 172.005 78.7789 171.033 78.5936 169.936L87.0776 169.946C88.6656 169.979 90.3208 169.779 91.9127 169.684L92.4857 173.704C92.5497 174.069 92.596 174.319 92.8984 174.533C94.7211 174.353 96.5691 173.31 98.2132 172.544C98.6642 172.334 98.9451 172.066 99.1122 171.592L99.1591 171.449C99.3807 170.793 99.43 169.811 99.2806 169.129L99.2315 168.927C99.456 168.609 100.275 168.495 100.666 168.38L100.842 168.603C101.181 169.095 101.502 169.266 102.075 169.432L102.25 169.48C102.781 169.629 103.346 169.618 103.893 169.581C104.939 169.511 107.139 168.652 107.807 167.821C108.065 167.499 108.11 167.208 108.055 166.813L107.944 166.033L109.424 165.6L109.528 165.645L109.694 165.712C110.707 166.162 111.643 165.806 112.638 165.488C116.488 164.254 119.451 161.847 121.438 158.331C121.877 157.554 122.139 156.697 122.55 155.904L122.609 155.792Z" fill="#F6F6F5"/>
<path d="M73.6055 170.387C73.8029 170.334 73.8803 170.313 74.0785 170.405C75.3406 170.995 76.1931 173.774 76.749 174.999C77.0491 175.66 77.4893 176.396 77.6874 177.089C77.7918 177.454 77.7114 177.64 77.5334 177.954L77.1676 178.199C76.9235 178.179 76.7903 178.193 76.5933 178.028C75.1389 176.813 73.7281 172.216 73.6055 170.387Z" fill="#0F1E3D"/>
<path d="M81.3265 170.495L81.5537 170.416C81.8199 170.489 82.0675 170.56 82.2848 170.739C82.7814 171.146 84.2034 175.474 84.2878 176.279C84.1392 176.535 84.0741 176.572 83.8175 176.728L83.5373 176.733C83.0889 176.69 82.237 176.415 81.9475 176.065C81.3326 175.323 81.2763 174.216 81.1252 173.306C81.0742 172.998 80.9669 172.725 80.9909 172.409C81.0197 172.031 80.8255 171.653 80.8498 171.252C80.872 170.884 81.0865 170.736 81.3265 170.495Z" fill="#0F1E3D"/>
<path d="M84.756 170.711C85.4353 170.484 86.4412 170.607 87.1013 170.864C88.1229 171.263 88.5367 171.994 88.9851 172.915C89.117 173.187 89.2191 173.35 89.2143 173.665C89.2029 174.448 88.8894 174.766 88.3458 175.274C88.1175 175.378 87.6879 175.625 87.4481 175.618C86.6621 175.597 85.8228 175.106 85.3324 174.526C84.6745 173.748 84.0159 172.524 84.199 171.468C84.2708 171.055 84.4453 170.934 84.756 170.711Z" fill="#0F1E3D"/>
<path d="M135.977 66.3694L145.31 69.7672L150.95 71.9096C153.516 72.7846 156.17 73.4292 158.812 74.0255C161.568 74.6475 164.862 75.4177 167.707 75.0765C168.214 75.0155 168.653 74.4819 168.913 74.0867C168.951 73.7957 168.981 73.5364 168.879 73.254C168.716 72.8017 168.538 72.6249 168.103 72.4277C167.286 72.0582 166.182 71.6593 165.499 71.0908C165.5 70.7507 165.458 70.613 165.653 70.3263C166.318 70.4982 166.959 70.9088 167.565 71.2296C169.113 72.0495 170.682 72.8097 171.832 74.168C171.688 74.5213 171.534 74.8791 171.29 75.1766C170.653 75.9545 169.761 76.6144 169.036 77.3271C167.771 78.5705 166.623 79.937 165.561 81.356L164.646 82.8204C164.479 83.1296 164.374 83.2647 164.464 83.602L164.946 83.6976C165.093 83.7201 165.309 83.7309 165.436 83.6331C165.657 83.4643 165.922 83.0262 166.107 82.7953C166.885 81.823 167.694 80.5735 168.714 79.8576C168.936 82.1687 169.147 84.3525 169.023 86.6798C166.713 86.5708 164.198 85.6266 162.016 84.903C156.024 82.9164 150.118 80.5437 144.46 77.7396C142.783 76.9085 140.841 76.1904 139.539 74.8179C139.732 74.0028 140.073 73.3196 140.168 72.4612C140.411 70.2761 137.21 67.9484 135.977 66.3694Z" fill="#F6F6F5"/>
<path d="M142.324 71.253C142.511 71.2158 142.707 71.2266 142.897 71.224L142.991 71.3568L143.115 71.5232C143.417 71.9438 144.029 72.1496 144.489 72.3656C146.419 73.2702 148.564 74.0588 150.608 74.6501C151.276 74.8434 152.665 74.8592 153.164 75.3249C153.292 75.4447 153.244 75.5643 153.244 75.7247L152.897 76.0185C152.802 76.0635 152.794 76.0708 152.676 76.1067C150.382 76.8088 147.177 75.4529 145.147 74.4469C144.171 73.9628 142.482 73.1688 142.195 71.9998C142.113 71.6683 142.146 71.5328 142.324 71.253Z" fill="#0F1E3D"/>
<path d="M101.774 77.0721C103.322 76.9225 104.918 77.0972 106.425 77.4714C108.705 78.0381 110.16 79.5577 111.657 81.2396C112.355 82.0247 113.078 82.8294 113.61 83.7412C114.865 85.8944 115.191 88.4408 115.14 90.8931C115.126 91.5739 115.139 92.2736 114.954 92.9337C114.415 94.8541 113.484 97.0065 112.252 98.5881C110.358 101.021 107.119 101.529 104.221 101.856C102.891 101.979 101.427 101.818 100.122 101.552C97.2558 100.968 94.5826 98.95 92.9982 96.5205C91.6598 94.4684 90.9591 91.8412 90.9011 89.401C90.8903 88.9485 90.8242 88.3662 90.9316 87.934C90.9922 87.691 90.9658 87.8972 90.99 87.6512C91.1898 85.6253 91.8397 83.765 93.0533 82.1179C95.3408 79.0135 98.0236 77.652 101.774 77.0721Z" fill="#F6F6F5"/>
<path d="M104.868 79.4341C106.687 79.254 108.53 79.6892 110.088 80.6444C112.718 82.2567 113.79 85.4619 114.379 88.3338C114.475 88.8054 114.425 89.3386 114.401 89.8166C114.337 91.1135 114.232 92.3632 113.487 93.4775C112.68 94.6834 111.403 95.4622 110.006 95.7426C109.552 95.7508 109.095 95.7651 108.646 95.6894C106.492 95.3275 104.841 94.1666 103.115 92.9117C102.651 92.574 102.063 92.2473 101.742 91.7669C100.16 89.4056 99.8084 86.8904 100.397 84.1717C100.579 83.3315 100.972 82.413 101.452 81.6961C102.31 80.4126 103.379 79.7275 104.868 79.4341Z" fill="#0F1E3D"/>
<path d="M103.123 87.0365C103.545 87.5338 103.68 88.5552 103.947 89.188C104.509 90.5169 105.231 91.5084 106.192 92.5739C105.36 92.111 104.126 91.5484 103.612 90.7273C102.927 89.633 102.842 88.2562 103.123 87.0365Z" fill="#F6F6F5"/>
<path d="M106.538 82.981C107.03 83.1853 107.444 83.4768 107.88 83.7765L106.467 86.2393L105.004 84.3687L106.538 82.981Z" fill="#F6F6F5"/>
<path d="M59.1675 134.663C59.8354 136.372 60.1859 138.257 60.6672 140.031C59.7498 140.315 58.8207 140.578 57.9621 141.016C56.7256 141.646 55.4999 142.579 54.4033 143.424C52.8768 144.601 51.3467 145.782 50.1534 147.318C49.6652 147.946 49.2155 148.382 49.3197 149.198C49.5612 149.473 49.7452 149.552 50.0892 149.668C50.767 149.551 51.0682 148.776 51.4314 148.263C51.8366 147.691 52.2647 147.139 52.7304 146.616C54.2024 144.959 56.1263 143.285 58.0888 142.223C58.96 141.752 59.8895 141.436 60.7422 140.92L60.8821 140.834L62.9926 148.578C61.0992 148.147 59.4553 147.946 57.5077 147.953C56.8102 147.955 56.1217 147.918 55.4539 148.155C54.5739 148.467 52.7367 149.4 52.3698 150.295C52.2552 150.575 52.3211 150.769 52.4191 151.036C52.6478 151.226 52.855 151.405 53.1702 151.414C53.5609 151.426 54.1624 150.826 54.5079 150.631C55.3421 150.16 56.4458 149.76 57.4 149.815L58.6296 149.901C60.4769 150.146 62.3206 150.541 64.1296 150.983C67.7131 151.857 71.163 152.961 73.4726 156.02C74.6287 157.552 75.8274 159.401 75.5152 161.419C75.2823 162.924 74.3641 164.037 73.1866 164.923C72.7414 163.074 72.0904 160.938 70.4223 159.801C70.0106 159.521 69.791 159.571 69.3321 159.656C69.1644 159.787 68.9667 159.922 68.8707 160.116C68.7272 160.408 68.8182 160.542 68.8997 160.831C69.1981 161.318 69.6688 161.713 70.0052 162.181C70.7576 163.229 71.1276 164.696 71.3481 165.948C70.5925 166.778 69.511 167.584 68.5784 168.21C68.5603 167.836 68.5471 167.449 68.4699 167.081C68.2357 165.966 67.6552 164.417 66.6835 163.759C66.3095 163.741 66.0554 163.744 65.7458 163.99C65.5233 164.167 65.4116 164.602 65.4935 164.873C65.5791 165.156 65.8736 165.544 66.0198 165.814C66.4543 166.612 66.7019 167.399 66.6872 168.313C66.6796 168.783 66.6213 169.5 66.4001 169.916C66.0524 170.571 65.273 171.087 64.7179 171.55C64.2901 171.906 63.8935 172.307 63.4946 172.695C62.7707 171.48 62.0985 170.094 61.1712 169.026L60.2512 169.256C59.947 169.499 59.9057 169.695 59.8173 170.053C60.2838 171.275 60.9906 172.729 61.7664 173.778L61.8652 173.911C60.529 174.98 59.3533 175.648 57.6026 175.672C54.0247 175.722 50.5986 173.519 48.1387 171.08C44.995 167.962 42.445 162.763 42.4571 158.278C42.4614 156.666 42.8819 155.262 43.3701 153.748C44.0449 151.655 44.9712 149.605 46.174 147.76C48.4131 144.323 51.6647 141.194 54.6982 138.447C56.1501 137.133 57.7734 136.047 59.1675 134.663Z" fill="#F6F6F5"/>
<path d="M60.3676 136.124L59.9484 134.866L58.7857 135.503C54.7946 137.688 49.2671 141.926 45.6275 147.596C41.9997 153.247 40.2176 160.391 43.8108 168.25C43.8064 168.312 43.8007 168.377 43.7943 168.448C43.7867 168.533 43.7782 168.627 43.7701 168.74C43.7605 168.875 43.7517 169.048 43.7632 169.224C43.7742 169.393 43.8078 169.646 43.9361 169.902C44.0806 170.191 44.3273 170.446 44.6772 170.586C44.9928 170.713 45.3026 170.709 45.5395 170.677C45.9928 170.617 46.5125 170.405 47.0818 170.121C47.4579 169.933 47.9003 169.564 48.325 169.177C48.7822 168.76 49.3265 168.221 49.9291 167.597C51.136 166.348 52.6153 164.718 54.1693 162.958C57.2792 159.436 60.7189 155.359 62.9377 152.678L63.1156 152.463L63.1704 152.189C63.2887 151.597 63.3077 150.824 63.0544 150.136C62.9233 149.78 62.7011 149.401 62.3335 149.108C61.9523 148.804 61.4851 148.651 60.9779 148.651C60.2494 148.651 59.6763 148.686 59.1528 148.796C58.6126 148.909 58.1767 149.09 57.7153 149.321C57.5258 149.416 57.4206 149.439 57.3608 149.446C57.2985 149.454 57.2213 149.453 57.0585 149.426C56.9961 149.416 56.9224 149.402 56.8375 149.385C56.4737 149.315 55.9039 149.204 55.1342 149.204C54.6674 149.204 54.2995 149.245 54.0131 149.283C53.9404 149.293 53.879 149.301 53.8265 149.308C53.6499 149.332 53.5737 149.342 53.503 149.343C53.466 149.316 53.3788 149.242 53.2271 149.061C53.2623 148.937 53.4107 148.622 53.9357 148.063C55.0144 146.914 57.2726 145.153 61.5764 142.386L62.3001 141.921L62.0281 141.105L60.3676 136.124Z" fill="#1E75F1" stroke="#0F1E3D" stroke-width="2.21402"/>
<path d="M149.027 19.6565C149.834 19.6749 150.624 19.821 151.275 20.3315C153.173 21.821 152.252 26.6082 151.851 28.6501C151.683 29.5 151.266 30.582 151.387 31.4472C151.43 31.7525 151.631 31.8116 151.864 31.9752L151.883 32.1184C150.85 33.1101 149.987 34.2102 149.11 35.3373C147.511 37.3918 145.461 40.1306 145.858 42.8847C146.02 44.0146 146.785 45.1219 147.697 45.7951C148.926 46.7028 151.247 47.2855 152.742 47.0349L153.723 46.8626C153.723 47.4896 153.704 48.3605 153.922 48.9462C154.288 49.9306 154.973 50.672 155.94 51.0757C157.581 51.7605 159.463 51.6277 161.065 50.9332L161.212 50.8684C161.905 51.3665 162.319 52.1499 163.09 52.6625C164.377 53.5178 166.51 54.5667 168.085 54.2287C170.035 53.8102 171.198 52.0489 172.182 50.4733C171.858 55.5342 169.644 60.6968 165.978 64.2405C163.771 66.3745 161.257 66.9429 158.268 66.8619L158.085 66.856L157.938 67.4692C159.616 68.3948 161.957 68.1256 163.755 67.7479L162.846 72.3411C161.19 72.2382 159.627 71.6845 158.027 71.2968L149.789 69.1881C148.093 68.6231 146.15 68.1875 144.57 67.3607C144.675 66.7951 144.792 66.2307 144.979 65.6854C145.115 65.2872 145.319 64.8846 145.367 64.4636C145.38 64.3493 145.431 64.0686 145.401 63.9557C145.316 63.6286 143.747 63.1795 143.395 63.0416C142.03 62.5065 140.591 61.5681 139.572 60.5203C138.833 59.7612 138.12 58.8449 137.687 57.8761C136.33 54.8365 136.485 51.4664 134.622 48.5856C133.795 47.3047 132.641 46.3169 131.433 45.4092C130.575 44.7645 129.501 44.0501 128.852 43.1833C128.344 42.5048 128.097 41.5254 128.261 40.6871C128.394 40.0127 128.806 39.352 129.402 38.9918C130.834 38.1256 132.995 38.2443 134.553 38.637C136.261 39.0679 138.265 40.2603 139.253 41.7375C139.722 42.438 140.096 43.2869 140.642 43.9232C141.881 45.3675 143.432 46.5502 144.418 48.2152C145.428 49.9207 145.922 51.762 145.417 53.7172C145.356 53.9568 145.38 53.9299 145.468 54.1433C145.708 54.2439 145.711 54.2426 145.962 54.1721C146.412 53.7399 146.769 53.2638 146.958 52.6614C147.786 50.0314 145.905 47.1136 144.248 45.2012C143.187 43.9774 141.977 42.8862 141.225 41.4274C141.52 41.3068 141.74 41.1924 141.998 41.0045C142.325 39.8975 142.353 38.8231 142.488 37.6902C142.674 36.1462 142.672 34.5397 142.789 32.9832C142.896 31.5564 143.106 30.1707 143.376 28.7671C143.753 26.806 144.33 24.5526 145.369 22.8312C146.246 21.381 147.331 20.0772 149.027 19.6565Z" fill="#F6F6F5"/>
<path d="M144.697 80.0638C150.516 83.1373 156.628 86.0646 162.982 87.854L168.113 89.131L172.498 90.0168C171.81 90.8896 171.106 91.7621 170.555 92.7307C168.971 95.5144 167.992 98.6474 166.543 101.517C163.694 107.161 159.88 111.93 155.162 116.121C153.28 117.793 151.377 119.358 149.209 120.658C145.991 122.588 142.654 123.921 139.216 125.363C135.612 126.695 131.986 127.651 128.191 128.253C127.232 128.405 125.998 128.648 125.033 128.628C123.159 128.59 121.341 128.73 119.453 128.582C118.439 128.503 117.444 128.241 116.433 128.114C116.079 127.231 115.837 126.329 115.617 125.406C115.515 124.977 115.345 124.487 115.344 124.046L118.737 123.481C123.384 122.459 127.345 120.275 131.116 117.415C134.357 114.958 137.15 112.234 139.334 108.779C143.457 102.256 145.24 94.4876 145.27 86.8397C145.279 84.6004 145.196 82.2508 144.697 80.0638Z" fill="#1E75F1"/>
<path d="M142.243 110.279L142.573 110.236C142.7 110.43 142.744 110.424 142.722 110.672C142.667 111.303 142.367 112.024 142.103 112.597C140.878 115.248 138.526 117.15 136.306 118.945C134.886 120.092 133.369 120.834 131.664 121.459C130.907 121.736 130.148 122.056 129.329 121.971C129.13 121.884 128.972 121.782 128.788 121.666L128.738 121.414C129.093 121.018 129.498 120.569 129.954 120.289C130.38 120.026 130.894 119.903 131.357 119.716C132.296 119.335 133.295 118.884 134.137 118.317C136.558 116.688 138.843 114.556 140.709 112.306C141.23 111.677 141.653 110.975 142.181 110.352L142.243 110.279Z" fill="#0F1E3D"/>
<path d="M87.7199 62.594C88.2516 62.481 88.9553 62.5298 89.5054 62.5197C91.3477 62.4857 93.6484 62.3914 95.3857 63.1032C95.9704 63.3428 96.6657 63.7562 97.0318 64.2723C97.3989 64.7903 97.5833 65.4669 97.8477 66.042L101.619 75.1487C100.236 75.3513 98.9022 75.7577 97.6253 76.3264C94.4061 77.7601 91.6072 80.4139 90.3497 83.7585C88.8554 87.7325 88.9192 92.1865 90.7211 96.0671C92.5693 100.048 95.4687 103.195 99.6527 104.676C102.931 105.836 106.002 105.663 109.131 104.155C109.577 106.162 109.757 108.263 110.118 110.291L112.127 119.725L116.74 135.546L121.96 153.934C121.656 154.284 121.093 154.535 120.697 154.777L118.521 156.127C110.376 161.095 101.487 164.465 92.0052 165.671L87.1469 166.189C85.5947 166.46 83.8503 166.325 82.2666 166.347C79.7818 166.382 77.2906 166.525 74.8063 166.376C75.882 165.396 76.9194 164.437 77.6297 163.147C78.2433 162.033 78.3814 160.487 77.9914 159.269L77.93 159.09C76.9983 156.263 74.7449 153.85 72.3214 152.195C71.4628 151.609 70.513 151.113 69.6311 150.553C69.1273 150.233 68.2668 149.965 67.8575 149.565C67.7245 149.435 67.5894 148.95 67.5362 148.762L66.744 145.381L63.5088 132.858L59.1888 116.935L54.0218 99.7327L49.696 85.8073C49.4841 85.2117 49.1088 83.6119 48.6136 83.25C48.355 83.061 48.3267 82.677 48.2422 82.3646L49.9514 79.7296C51.6415 77.5832 53.5917 75.8278 55.7258 74.1364C61.6945 69.4054 69.0908 66.0067 76.5008 64.2805C80.2058 63.4174 83.9532 63.0412 87.7199 62.594Z" fill="#F6F6F5"/>
<path d="M81.058 145.09C81.3996 144.983 81.6074 144.982 81.9296 145.141C82.0461 145.333 82.1064 145.453 82.1034 145.684C82.0803 147.508 81.4946 149.527 81.0887 151.306C80.97 151.826 80.9065 152.978 80.4957 153.334C80.2756 153.525 79.892 153.615 79.6014 153.58C78.7082 153.472 77.3891 151.742 76.7733 151.065C76.4322 150.731 75.5816 150.057 75.457 149.63C75.5401 149.244 75.5891 148.987 75.8583 148.689C76.0343 148.604 76.1794 148.532 76.3794 148.536C77.3407 148.552 78.7774 150.346 79.4496 151.046C79.641 150.724 79.6924 150.242 79.7772 149.876C79.9698 149.043 80.1757 148.205 80.3063 147.36C80.4405 146.491 80.3649 145.715 81.058 145.09Z" fill="#0F1E3D"/>
<path d="M103.993 143.003L104.111 142.988C104.556 142.963 104.81 142.906 105.135 143.214C105.17 143.543 105.19 143.698 105.044 144.009C104.407 144.439 103.4 144.567 102.657 144.771L98.495 145.944L90.3057 148.445L89.7615 148.517C89.4594 148.366 89.4123 148.318 89.2209 148.039C89.2155 147.84 89.2123 147.679 89.3115 147.497C89.4356 147.269 89.6296 147.126 89.864 147.031C91.9169 146.196 94.2715 145.7 96.4089 145.11L103.993 143.003Z" fill="#0F1E3D"/>
<path d="M78.1667 132.874L78.6289 132.813C78.9682 132.822 79.0635 132.941 79.2776 133.183C79.4441 133.85 79.2149 134.808 79.099 135.483C78.8067 137.186 78.3716 138.894 78.1494 140.603C78.1046 140.949 78.0562 141.226 77.8493 141.518C77.5729 141.908 77.2415 142.016 76.7911 142.109C75.957 141.674 75.2954 140.8 74.6919 140.098C74.3081 139.615 73.4316 138.706 73.3927 138.096C73.3756 137.826 73.4651 137.607 73.6549 137.414C73.9222 137.143 74.2766 137.145 74.629 137.163C75.3585 137.676 75.9766 138.705 76.5773 139.386L77.4938 134.657C77.576 134.063 77.6912 133.289 78.1667 132.874Z" fill="#0F1E3D"/>
<path d="M75.6205 119.793C75.7243 119.774 75.8754 119.741 75.9786 119.749C76.339 119.776 76.4105 119.914 76.622 120.171C76.7197 121.396 76.2633 122.909 76.0333 124.117L75.2832 128.224C75.1939 128.66 75.0536 129.961 74.7896 130.238C74.4772 130.567 73.9771 130.63 73.5457 130.647C72.7728 130.232 71.9624 128.985 71.3791 128.293C70.8826 127.729 70.2305 127.135 70.0703 126.387C70.2016 125.899 70.6208 125.68 71.0089 125.394C71.9397 125.978 72.7016 126.981 73.4785 127.765L74.96 120.695C75.0836 120.22 75.2013 120.046 75.6205 119.793Z" fill="#0F1E3D"/>
<path d="M107.597 129.395L108.033 129.485C108.238 129.818 108.182 130.002 108.173 130.387C107.367 131.035 105.344 131.273 104.303 131.523L98.426 132.957L92.4384 134.551L87.513 136.11C86.6702 136.423 85.8607 136.839 85.0058 137.111C84.7955 137.043 84.6419 136.907 84.4653 136.777C84.3295 136.456 84.3204 136.451 84.4108 136.117C85.8292 134.512 97.7116 131.786 100.512 131.075C102.832 130.487 105.226 129.698 107.597 129.395Z" fill="#0F1E3D"/>
<path d="M104.899 118.171L105.33 118.163C105.473 118.278 105.598 118.367 105.681 118.535C105.822 118.823 105.782 118.856 105.683 119.144C104.986 119.753 103.753 119.765 102.856 119.901L99.1077 120.51L86.6718 123.472L81.4388 125.108C81.3482 125.118 81.202 125.14 81.1144 125.122C80.8323 125.065 80.7348 124.87 80.5793 124.658C80.5743 124.273 80.575 124.244 80.7901 123.927C82.0463 123.25 83.7479 122.962 85.1248 122.57L95.4926 119.853L104.899 118.171Z" fill="#0F1E3D"/>
<path d="M70.9978 80.4505C71.4296 80.4031 71.9377 80.319 72.3668 80.3984L75.1147 80.7049L75.2596 80.7272C75.9627 80.8412 76.6669 81.13 77.3257 81.3957C80.415 82.6422 82.6528 84.8363 84.5351 87.5319C86.5003 90.3463 87.585 94.0485 87.5046 97.4589C87.4888 98.1306 87.5024 98.8595 87.3712 99.5179C86.9902 101.428 86.2765 103.098 85.1935 104.72C83.2668 107.606 80.274 110.477 77.0982 111.932C75.8933 112.484 74.5727 112.814 73.2786 113.076L71.8475 113.211C68.5719 113.475 65.0392 111.792 62.6115 109.709C59.5056 107.044 57.1939 102.788 56.8996 98.6738C56.5573 93.89 58.2196 89.0034 61.3925 85.4223C63.6731 82.8485 67.5345 80.6554 70.9978 80.4505Z" fill="#0F1E3D"/>
<path d="M71.9464 82.5938C74.1634 82.3808 76.4548 82.9181 78.3653 84.0688C82.5745 86.6039 84.5261 90.7991 85.6054 95.3854C86.1963 97.8954 85.072 101.123 83.7518 103.246C81.9391 106.159 78.1707 108.903 74.7826 109.636L74.5749 109.679C74.0298 109.808 73.4823 109.861 72.9265 109.925C72.0225 109.973 70.5018 110.125 69.6526 109.823C69.4923 109.766 69.4193 109.74 69.2418 109.72C67.5198 109.524 65.7127 108.686 64.3506 107.641C61.6185 105.544 59.6674 102.432 59.2592 98.9823C58.7779 94.9145 59.9342 90.9262 62.4924 87.7457C64.7638 84.922 68.3615 82.9836 71.9464 82.5938Z" fill="#F6F6F5"/>
<path d="M74.4718 86.3845L74.5261 86.3797C77.3567 86.5371 79.7906 88.0605 81.4978 90.2782C83.1292 92.3976 83.8749 95.0464 83.5504 97.685C83.4345 98.6277 83.2044 99.3577 82.7434 100.18C81.9128 101.663 80.8911 102.262 79.2778 102.706C77.8538 103.099 76.1667 102.733 74.904 102.025C73.709 101.252 73.0065 100.037 72.6223 98.684C72.3589 97.757 72.2887 97.0384 71.6993 96.239C71.5149 95.9889 70.9291 96.0464 70.6083 95.994C70.3322 95.9491 69.0027 97.1378 68.6033 97.3227C68.2583 97.4827 67.7988 97.5125 67.45 97.3445C66.9175 97.0881 66.5257 96.4116 66.3683 95.8628C65.9409 94.3709 66.1779 92.0101 66.9147 90.6477L67.0001 90.496C67.2864 89.9773 67.6228 89.5572 68.015 89.1128C69.1919 87.7803 70.5451 86.9284 72.3034 86.5656C72.9877 86.4242 73.7708 86.429 74.4718 86.3845Z" fill="#0F1E3D"/>
<path d="M73.186 90.604C73.4632 90.5229 73.69 90.4849 73.979 90.5446C74.3347 90.6181 74.5875 90.8419 74.779 91.1446C74.9704 91.4475 75.0525 91.9541 74.9661 92.3C74.8322 92.836 74.4361 93.1478 73.984 93.4148C73.8374 93.442 73.6969 93.4727 73.5466 93.4544C73.1163 93.402 72.618 93.1569 72.3877 92.7772C72.1704 92.4194 72.1525 91.9415 72.2753 91.5491C72.4292 91.0566 72.7471 90.8315 73.186 90.604Z" fill="#F6F6F5"/>
</svg>
