<svg width="33" height="32" viewBox="0 0 33 32" fill="none" xmlns="http://www.w3.org/2000/svg">
<path fill-rule="evenodd" clip-rule="evenodd" d="M19.168 3C19.7203 3 20.168 3.44772 20.168 4V9.33333C20.168 9.42174 20.2031 9.50652 20.2656 9.56903C20.3281 9.63155 20.4129 9.66667 20.5013 9.66667H25.8346C26.3869 9.66667 26.8346 10.1144 26.8346 10.6667C26.8346 11.219 26.3869 11.6667 25.8346 11.6667H20.5013C19.8825 11.6667 19.289 11.4208 18.8514 10.9832C18.4138 10.5457 18.168 9.95217 18.168 9.33333V4C18.168 3.44772 18.6157 3 19.168 3Z" fill="#262626"/>
<path fill-rule="evenodd" clip-rule="evenodd" d="M9.83464 5C9.39261 5 8.96868 5.17559 8.65612 5.48815C8.34356 5.80072 8.16797 6.22464 8.16797 6.66667V25.3333C8.16797 25.7754 8.34356 26.1993 8.65612 26.5118C8.96868 26.8244 9.39261 27 9.83464 27H23.168C23.61 27 24.0339 26.8244 24.3465 26.5118C24.659 26.1993 24.8346 25.7754 24.8346 25.3333V11.0809L18.7538 5H9.83464ZM7.24191 4.07394C7.92954 3.38631 8.86217 3 9.83464 3H19.168C19.4332 3 19.6875 3.10536 19.8751 3.29289L26.5417 9.95956C26.7293 10.1471 26.8346 10.4014 26.8346 10.6667V25.3333C26.8346 26.3058 26.4483 27.2384 25.7607 27.9261C25.0731 28.6137 24.1404 29 23.168 29H9.83464C8.86217 29 7.92954 28.6137 7.24191 27.9261C6.55428 27.2384 6.16797 26.3058 6.16797 25.3333V6.66667C6.16797 5.69421 6.55428 4.76157 7.24191 4.07394Z" fill="#262626"/>
<path fill-rule="evenodd" clip-rule="evenodd" d="M16.5 13.6667C17.0523 13.6667 17.5 14.1144 17.5 14.6667V22.6667C17.5 23.219 17.0523 23.6667 16.5 23.6667C15.9477 23.6667 15.5 23.219 15.5 22.6667V14.6667C15.5 14.1144 15.9477 13.6667 16.5 13.6667Z" fill="#262626"/>
<path fill-rule="evenodd" clip-rule="evenodd" d="M15.7942 13.9596C16.1847 13.5691 16.8179 13.5691 17.2084 13.9596L20.5417 17.2929C20.9323 17.6834 20.9323 18.3166 20.5417 18.7071C20.1512 19.0977 19.5181 19.0977 19.1275 18.7071L16.5013 16.0809L13.8751 18.7071C13.4846 19.0977 12.8514 19.0977 12.4609 18.7071C12.0703 18.3166 12.0703 17.6834 12.4609 17.2929L15.7942 13.9596Z" fill="#262626"/>
</svg>
